<svg xmlns="http://www.w3.org/2000/svg" width="841.969" height="228.531" viewBox="0 0 841.969 228.531">
  <defs>
    <style>
      .cls-1 {
        fill-rule: evenodd;
      }
    </style>
  </defs>
  <path id="B" class="cls-1" d="M2.646,227.13h102.39c49.3,0,81.848-21.173,81.848-60.675v-0.632c0-30.022-18.013-44.875-43.926-53.723,16.433-8.533,31.6-22.754,31.6-49.3V62.169c0-14.853-5.057-26.862-14.853-36.658C147.066,12.87,127.157,5.917,101.875,5.917H2.646V227.13ZM40.884,99.143V40.363H96.819c24.966,0,38.87,10.745,38.87,28.126v0.632c0,20.225-16.749,30.022-41.714,30.022H40.884Zm0,93.541V132.009h61.623c30.654,0,45.507,11.06,45.507,29.706v0.632c0,19.909-16.117,30.337-42.662,30.337H40.884Z" transform="translate(-2.156 -2.25)"/>
  <path id="S" class="cls-1" d="M305.024,230.291c46.455,0,79.005-24.65,79.005-66.048v-0.632c0-36.659-24.333-53.407-71.1-64.784-42.347-10.113-52.459-17.7-52.459-34.762V63.433c0-14.537,13.273-26.229,36.026-26.229,20.225,0,40.134,7.9,60.043,22.753l20.858-29.39c-22.438-18.013-48.035-27.81-80.269-27.81-43.927,0-75.529,26.23-75.529,64.152v0.632c0,40.766,26.546,54.671,73.633,66.048,41.082,9.48,49.931,18.013,49.931,33.814v0.632c0,16.749-15.169,27.81-39.187,27.81-27.493,0-48.666-10.429-69.84-28.758L212.747,194.9C239.293,218.6,271.21,230.291,305.024,230.291Z" transform="translate(-2.156 -2.25)"/>
  <path id="P" class="cls-1" d="M435.176,227.13h38.87v-71.1h43.926c48.667,0,88.486-25.913,88.486-75.528V79.866c0-44.559-32.55-73.948-84.061-73.948H435.176V227.13Zm38.87-106.182V41.311h45.19c29.074,0,47.719,13.589,47.719,39.5v0.632c0,23.069-18.329,39.5-47.719,39.5h-45.19Z" transform="translate(-2.156 -2.25)"/>
  <path id="K" class="cls-1" d="M647.171,227.13h38.87V162.979l34.446-35.394,75.528,99.545H843.1l-96.07-126.091L838.994,5.917H791.275L686.041,117.156V5.917h-38.87V227.13Z" transform="translate(-2.156 -2.25)"/>
</svg>
